<svg xmlns="http://www.w3.org/2000/svg" xmlns:xlink="http://www.w3.org/1999/xlink" width="256" zoomAndPan="magnify" viewBox="0 0 192 191.999996" height="256" preserveAspectRatio="xMidYMid meet" version="1.0"><path fill="#000000" d="M 96 0 C 94.429688 0 92.859375 0.0390625 91.289062 0.117188 C 89.71875 0.191406 88.152344 0.308594 86.589844 0.460938 C 85.027344 0.617188 83.46875 0.808594 81.914062 1.039062 C 80.359375 1.269531 78.8125 1.539062 77.269531 1.84375 C 75.730469 2.152344 74.199219 2.496094 72.675781 2.878906 C 71.148438 3.257812 69.636719 3.675781 68.132812 4.132812 C 66.628906 4.589844 65.136719 5.082031 63.660156 5.613281 C 62.179688 6.140625 60.714844 6.707031 59.261719 7.308594 C 57.8125 7.910156 56.375 8.546875 54.953125 9.21875 C 53.535156 9.890625 52.132812 10.59375 50.746094 11.335938 C 49.359375 12.074219 47.992188 12.851562 46.644531 13.65625 C 45.296875 14.464844 43.972656 15.304688 42.664062 16.179688 C 41.359375 17.050781 40.074219 17.957031 38.8125 18.890625 C 37.550781 19.828125 36.3125 20.792969 35.097656 21.789062 C 33.882812 22.789062 32.695312 23.8125 31.53125 24.867188 C 30.367188 25.921875 29.230469 27.007812 28.117188 28.117188 C 27.007812 29.230469 25.921875 30.367188 24.867188 31.53125 C 23.8125 32.695312 22.789062 33.882812 21.789062 35.097656 C 20.792969 36.3125 19.828125 37.550781 18.890625 38.8125 C 17.957031 40.074219 17.050781 41.359375 16.179688 42.664062 C 15.304688 43.972656 14.464844 45.296875 13.65625 46.644531 C 12.851562 47.992188 12.078125 49.359375 11.335938 50.746094 C 10.59375 52.132812 9.890625 53.535156 9.21875 54.953125 C 8.546875 56.375 7.910156 57.8125 7.308594 59.261719 C 6.707031 60.714844 6.140625 62.179688 5.613281 63.660156 C 5.082031 65.136719 4.589844 66.628906 4.132812 68.132812 C 3.675781 69.636719 3.257812 71.148438 2.878906 72.675781 C 2.496094 74.199219 2.152344 75.730469 1.84375 77.269531 C 1.539062 78.8125 1.269531 80.359375 1.039062 81.914062 C 0.808594 83.46875 0.617188 85.027344 0.460938 86.589844 C 0.308594 88.152344 0.191406 89.71875 0.117188 91.289062 C 0.0390625 92.859375 0 94.429688 0 96 C 0 97.570312 0.0390625 99.140625 0.117188 100.710938 C 0.191406 102.28125 0.308594 103.847656 0.460938 105.410156 C 0.617188 106.972656 0.808594 108.53125 1.039062 110.085938 C 1.269531 111.640625 1.539062 113.1875 1.84375 114.730469 C 2.152344 116.269531 2.496094 117.800781 2.878906 119.324219 C 3.257812 120.851562 3.675781 122.363281 4.132812 123.867188 C 4.589844 125.371094 5.082031 126.863281 5.613281 128.339844 C 6.140625 129.820312 6.707031 131.285156 7.308594 132.738281 C 7.910156 134.1875 8.546875 135.625 9.21875 137.046875 C 9.890625 138.464844 10.59375 139.867188 11.335938 141.253906 C 12.078125 142.640625 12.851562 144.007812 13.65625 145.355469 C 14.464844 146.703125 15.304688 148.027344 16.179688 149.335938 C 17.050781 150.640625 17.957031 151.925781 18.890625 153.1875 C 19.828125 154.449219 20.792969 155.6875 21.789062 156.902344 C 22.789062 158.117188 23.8125 159.304688 24.867188 160.46875 C 25.921875 161.632812 27.007812 162.769531 28.117188 163.882812 C 29.230469 164.992188 30.367188 166.078125 31.53125 167.132812 C 32.695312 168.1875 33.882812 169.210938 35.097656 170.207031 C 36.3125 171.207031 37.550781 172.171875 38.8125 173.109375 C 40.074219 174.042969 41.359375 174.949219 42.664062 175.820312 C 43.972656 176.695312 45.296875 177.535156 46.644531 178.34375 C 47.992188 179.148438 49.359375 179.921875 50.746094 180.664062 C 52.132812 181.40625 53.535156 182.109375 54.953125 182.78125 C 56.375 183.453125 57.8125 184.089844 59.261719 184.691406 C 60.714844 185.292969 62.179688 185.859375 63.660156 186.386719 C 65.136719 186.917969 66.628906 187.410156 68.132812 187.867188 C 69.636719 188.324219 71.148438 188.742188 72.675781 189.121094 C 74.199219 189.503906 75.730469 189.847656 77.269531 190.15625 C 78.8125 190.460938 80.359375 190.730469 81.914062 190.960938 C 83.46875 191.191406 85.027344 191.382812 86.589844 191.539062 C 88.152344 191.691406 89.71875 191.808594 91.289062 191.882812 C 92.859375 191.960938 94.429688 192 96 192 C 97.570312 192 99.140625 191.960938 100.710938 191.882812 C 102.28125 191.808594 103.847656 191.691406 105.410156 191.539062 C 106.972656 191.382812 108.53125 191.191406 110.085938 190.960938 C 111.640625 190.730469 113.1875 190.460938 114.730469 190.15625 C 116.269531 189.847656 117.800781 189.503906 119.324219 189.121094 C 120.851562 188.742188 122.363281 188.324219 123.867188 187.867188 C 125.371094 187.410156 126.863281 186.917969 128.339844 186.386719 C 129.820312 185.859375 131.285156 185.292969 132.738281 184.691406 C 134.1875 184.089844 135.625 183.453125 137.046875 182.78125 C 138.464844 182.109375 139.867188 181.40625 141.253906 180.664062 C 142.640625 179.921875 144.007812 179.148438 145.355469 178.34375 C 146.703125 177.535156 148.027344 176.695312 149.335938 175.820312 C 150.640625 174.949219 151.925781 174.042969 153.1875 173.109375 C 154.449219 172.171875 155.6875 171.207031 156.902344 170.207031 C 158.117188 169.210938 159.304688 168.1875 160.46875 167.132812 C 161.632812 166.078125 162.769531 164.992188 163.882812 163.882812 C 164.992188 162.769531 166.078125 161.632812 167.132812 160.46875 C 168.1875 159.304688 169.210938 158.117188 170.207031 156.902344 C 171.207031 155.6875 172.171875 154.449219 173.109375 153.1875 C 174.042969 151.925781 174.949219 150.640625 175.820312 149.335938 C 176.695312 148.027344 177.535156 146.703125 178.34375 145.355469 C 179.148438 144.007812 179.921875 142.640625 180.664062 141.253906 C 181.40625 139.867188 182.109375 138.464844 182.78125 137.046875 C 183.453125 135.625 184.089844 134.1875 184.691406 132.738281 C 185.292969 131.285156 185.859375 129.820312 186.386719 128.339844 C 186.917969 126.863281 187.410156 125.371094 187.867188 123.867188 C 188.324219 122.363281 188.742188 120.851562 189.121094 119.324219 C 189.503906 117.800781 189.847656 116.269531 190.15625 114.730469 C 190.460938 113.1875 190.730469 111.640625 190.960938 110.085938 C 191.191406 108.53125 191.382812 106.972656 191.539062 105.410156 C 191.691406 103.847656 191.808594 102.28125 191.882812 100.710938 C 191.960938 99.140625 192 97.570312 192 96 C 192 94.429688 191.957031 92.859375 191.878906 91.292969 C 191.800781 89.722656 191.683594 88.15625 191.527344 86.59375 C 191.371094 85.03125 191.179688 83.472656 190.945312 81.917969 C 190.714844 80.367188 190.445312 78.820312 190.136719 77.277344 C 189.828125 75.738281 189.484375 74.207031 189.101562 72.683594 C 188.71875 71.160156 188.296875 69.648438 187.839844 68.144531 C 187.382812 66.640625 186.890625 65.152344 186.359375 63.671875 C 185.832031 62.195312 185.265625 60.730469 184.664062 59.28125 C 184.0625 57.828125 183.425781 56.394531 182.75 54.972656 C 182.078125 53.554688 181.371094 52.152344 180.632812 50.769531 C 179.890625 49.382812 179.117188 48.015625 178.308594 46.671875 C 177.5 45.324219 176.660156 43.996094 175.785156 42.691406 C 174.914062 41.386719 174.007812 40.101562 173.074219 38.839844 C 172.136719 37.578125 171.171875 36.34375 170.175781 35.128906 C 169.179688 33.914062 168.152344 32.726562 167.097656 31.5625 C 166.042969 30.398438 164.960938 29.261719 163.851562 28.148438 C 162.738281 27.039062 161.601562 25.957031 160.4375 24.902344 C 159.273438 23.847656 158.085938 22.820312 156.871094 21.824219 C 155.65625 20.828125 154.421875 19.863281 153.160156 18.925781 C 151.898438 17.992188 150.613281 17.085938 149.308594 16.214844 C 148.003906 15.339844 146.675781 14.5 145.328125 13.691406 C 143.984375 12.882812 142.617188 12.109375 141.230469 11.367188 C 139.847656 10.628906 138.445312 9.921875 137.027344 9.25 C 135.605469 8.574219 134.171875 7.9375 132.71875 7.335938 C 131.269531 6.734375 129.804688 6.167969 128.328125 5.640625 C 126.847656 5.109375 125.359375 4.617188 123.855469 4.160156 C 122.351562 3.703125 120.839844 3.28125 119.316406 2.898438 C 117.792969 2.515625 116.261719 2.171875 114.722656 1.863281 C 113.179688 1.554688 111.632812 1.285156 110.082031 1.054688 C 108.527344 0.820312 106.96875 0.628906 105.40625 0.472656 C 103.84375 0.316406 102.277344 0.199219 100.707031 0.121094 C 99.140625 0.0429688 97.570312 0 96 0 Z M 96 177.230469 C 94.671875 177.230469 93.34375 177.199219 92.015625 177.132812 C 90.6875 177.066406 89.359375 176.96875 88.039062 176.839844 C 86.714844 176.710938 85.394531 176.546875 84.082031 176.351562 C 82.765625 176.15625 81.457031 175.929688 80.152344 175.671875 C 78.847656 175.410156 77.550781 175.121094 76.261719 174.796875 C 74.972656 174.472656 73.691406 174.117188 72.421875 173.734375 C 71.148438 173.347656 69.886719 172.929688 68.632812 172.480469 C 67.382812 172.035156 66.140625 171.554688 64.914062 171.046875 C 63.6875 170.539062 62.472656 170 61.269531 169.433594 C 60.066406 168.863281 58.878906 168.265625 57.707031 167.640625 C 56.535156 167.011719 55.378906 166.355469 54.238281 165.675781 C 53.097656 164.992188 51.976562 164.28125 50.871094 163.539062 C 49.765625 162.800781 48.679688 162.035156 47.609375 161.246094 C 46.542969 160.453125 45.496094 159.636719 44.46875 158.792969 C 43.441406 157.949219 42.433594 157.082031 41.449219 156.1875 C 40.464844 155.296875 39.5 154.378906 38.5625 153.4375 C 37.621094 152.5 36.703125 151.535156 35.8125 150.550781 C 34.917969 149.566406 34.050781 148.558594 33.207031 147.53125 C 32.363281 146.503906 31.546875 145.457031 30.753906 144.390625 C 29.964844 143.320312 29.199219 142.234375 28.460938 141.128906 C 27.71875 140.023438 27.007812 138.902344 26.324219 137.761719 C 25.644531 136.621094 24.988281 135.464844 24.359375 134.292969 C 23.734375 133.121094 23.136719 131.933594 22.566406 130.730469 C 22 129.527344 21.460938 128.3125 20.953125 127.085938 C 20.445312 125.859375 19.964844 124.617188 19.519531 123.367188 C 19.070312 122.113281 18.652344 120.851562 18.265625 119.578125 C 17.882812 118.308594 17.527344 117.027344 17.203125 115.738281 C 16.878906 114.449219 16.589844 113.152344 16.328125 111.847656 C 16.070312 110.542969 15.84375 109.234375 15.648438 107.917969 C 15.453125 106.605469 15.289062 105.285156 15.160156 103.960938 C 15.03125 102.640625 14.933594 101.3125 14.867188 99.984375 C 14.800781 98.65625 14.769531 97.328125 14.769531 96 C 14.769531 94.671875 14.800781 93.34375 14.867188 92.015625 C 14.933594 90.6875 15.03125 89.359375 15.160156 88.039062 C 15.289062 86.714844 15.453125 85.394531 15.648438 84.082031 C 15.84375 82.765625 16.070312 81.457031 16.328125 80.152344 C 16.589844 78.847656 16.878906 77.550781 17.203125 76.261719 C 17.527344 74.972656 17.882812 73.691406 18.265625 72.421875 C 18.652344 71.148438 19.070312 69.886719 19.519531 68.632812 C 19.964844 67.382812 20.445312 66.140625 20.953125 64.914062 C 21.460938 63.6875 22 62.472656 22.566406 61.269531 C 23.136719 60.066406 23.734375 58.878906 24.359375 57.707031 C 24.988281 56.535156 25.644531 55.378906 26.324219 54.238281 C 27.007812 53.097656 27.71875 51.976562 28.460938 50.871094 C 29.199219 49.765625 29.964844 48.679688 30.753906 47.609375 C 31.546875 46.542969 32.363281 45.496094 33.207031 44.46875 C 34.050781 43.441406 34.917969 42.433594 35.8125 41.449219 C 36.703125 40.464844 37.621094 39.5 38.5625 38.5625 C 39.5 37.621094 40.464844 36.703125 41.449219 35.8125 C 42.433594 34.917969 43.441406 34.050781 44.46875 33.207031 C 45.496094 32.363281 46.542969 31.546875 47.609375 30.753906 C 48.679688 29.964844 49.765625 29.199219 50.871094 28.460938 C 51.976562 27.71875 53.097656 27.007812 54.238281 26.324219 C 55.378906 25.644531 56.535156 24.988281 57.707031 24.359375 C 58.878906 23.734375 60.066406 23.136719 61.269531 22.566406 C 62.472656 22 63.6875 21.460938 64.914062 20.953125 C 66.140625 20.445312 67.382812 19.964844 68.632812 19.519531 C 69.886719 19.070312 71.148438 18.652344 72.421875 18.265625 C 73.691406 17.882812 74.972656 17.527344 76.261719 17.203125 C 77.550781 16.878906 78.847656 16.589844 80.152344 16.328125 C 81.457031 16.070312 82.765625 15.84375 84.082031 15.648438 C 85.394531 15.453125 86.714844 15.289062 88.039062 15.160156 C 89.359375 15.03125 90.6875 14.933594 92.015625 14.867188 C 93.34375 14.800781 94.671875 14.769531 96 14.769531 C 97.328125 14.769531 98.65625 14.800781 99.984375 14.867188 C 101.3125 14.933594 102.640625 15.03125 103.960938 15.160156 C 105.285156 15.289062 106.605469 15.453125 107.917969 15.648438 C 109.234375 15.84375 110.542969 16.070312 111.847656 16.328125 C 113.152344 16.589844 114.449219 16.878906 115.738281 17.203125 C 117.027344 17.527344 118.308594 17.882812 119.578125 18.265625 C 120.851562 18.652344 122.113281 19.070312 123.367188 19.519531 C 124.617188 19.964844 125.859375 20.445312 127.085938 20.953125 C 128.3125 21.460938 129.527344 22 130.730469 22.566406 C 131.933594 23.136719 133.121094 23.734375 134.292969 24.359375 C 135.464844 24.988281 136.621094 25.644531 137.761719 26.324219 C 138.902344 27.007812 140.023438 27.71875 141.128906 28.460938 C 142.234375 29.199219 143.320312 29.964844 144.390625 30.753906 C 145.457031 31.546875 146.503906 32.363281 147.53125 33.207031 C 148.558594 34.050781 149.566406 34.917969 150.550781 35.8125 C 151.535156 36.703125 152.5 37.621094 153.4375 38.5625 C 154.378906 39.5 155.296875 40.464844 156.1875 41.449219 C 157.082031 42.433594 157.949219 43.441406 158.792969 44.46875 C 159.636719 45.496094 160.453125 46.542969 161.246094 47.609375 C 162.035156 48.679688 162.800781 49.765625 163.539062 50.871094 C 164.28125 51.976562 164.992188 53.097656 165.675781 54.238281 C 166.355469 55.378906 167.011719 56.535156 167.640625 57.707031 C 168.265625 58.878906 168.863281 60.066406 169.433594 61.269531 C 170 62.472656 170.539062 63.6875 171.046875 64.914062 C 171.554688 66.140625 172.035156 67.382812 172.480469 68.632812 C 172.929688 69.886719 173.347656 71.148438 173.734375 72.421875 C 174.117188 73.691406 174.472656 74.972656 174.796875 76.261719 C 175.121094 77.550781 175.410156 78.847656 175.667969 80.152344 C 175.929688 81.457031 176.15625 82.765625 176.351562 84.082031 C 176.546875 85.394531 176.710938 86.714844 176.839844 88.039062 C 176.96875 89.359375 177.066406 90.6875 177.132812 92.015625 C 177.199219 93.34375 177.230469 94.671875 177.230469 96 C 177.230469 97.328125 177.195312 98.65625 177.128906 99.984375 C 177.0625 101.3125 176.960938 102.636719 176.832031 103.960938 C 176.699219 105.28125 176.535156 106.601562 176.339844 107.914062 C 176.144531 109.230469 175.914062 110.539062 175.652344 111.839844 C 175.394531 113.144531 175.101562 114.441406 174.777344 115.730469 C 174.453125 117.019531 174.097656 118.296875 173.710938 119.570312 C 173.324219 120.839844 172.90625 122.101562 172.457031 123.351562 C 172.011719 124.605469 171.53125 125.84375 171.023438 127.070312 C 170.511719 128.296875 169.972656 129.511719 169.40625 130.714844 C 168.835938 131.914062 168.238281 133.101562 167.609375 134.273438 C 166.984375 135.445312 166.328125 136.601562 165.644531 137.738281 C 164.960938 138.878906 164.25 140 163.511719 141.105469 C 162.773438 142.210938 162.007812 143.296875 161.214844 144.363281 C 160.421875 145.433594 159.605469 146.480469 158.761719 147.507812 C 157.917969 148.535156 157.050781 149.539062 156.160156 150.523438 C 155.265625 151.507812 154.351562 152.472656 153.410156 153.410156 C 152.472656 154.351562 151.507812 155.265625 150.523438 156.160156 C 149.539062 157.050781 148.535156 157.917969 147.507812 158.761719 C 146.480469 159.605469 145.433594 160.421875 144.363281 161.214844 C 143.296875 162.007812 142.210938 162.773438 141.105469 163.511719 C 140 164.25 138.878906 164.960938 137.738281 165.644531 C 136.601562 166.328125 135.445312 166.984375 134.273438 167.609375 C 133.101562 168.238281 131.914062 168.835938 130.714844 169.40625 C 129.511719 169.972656 128.296875 170.511719 127.070312 171.023438 C 125.84375 171.53125 124.605469 172.011719 123.351562 172.457031 C 122.101562 172.90625 120.839844 173.324219 119.570312 173.710938 C 118.296875 174.097656 117.019531 174.453125 115.730469 174.777344 C 114.441406 175.101562 113.144531 175.394531 111.839844 175.652344 C 110.539062 175.914062 109.230469 176.144531 107.914062 176.339844 C 106.601562 176.535156 105.28125 176.699219 103.960938 176.832031 C 102.636719 176.960938 101.3125 177.0625 99.984375 177.128906 C 98.65625 177.195312 97.328125 177.230469 96 177.230469 Z M 96 177.230469 " fill-opacity="1" fill-rule="nonzero"/><path fill="#000000" d="M 101.292969 44.773438 C 100.234375 44.578125 99.164062 44.445312 98.089844 44.367188 C 97.011719 44.292969 95.933594 44.273438 94.855469 44.316406 C 93.777344 44.359375 92.707031 44.457031 91.640625 44.617188 C 90.570312 44.777344 89.515625 44.996094 88.472656 45.269531 C 87.429688 45.542969 86.40625 45.875 85.398438 46.261719 C 84.390625 46.648438 83.410156 47.089844 82.449219 47.585938 C 81.492188 48.082031 80.5625 48.625 79.664062 49.222656 C 78.765625 49.820312 77.902344 50.464844 77.074219 51.15625 C 76.242188 51.847656 75.457031 52.582031 74.707031 53.359375 C 73.960938 54.136719 73.257812 54.953125 72.597656 55.808594 C 71.941406 56.664062 71.332031 57.550781 70.769531 58.472656 C 70.207031 59.394531 69.699219 60.34375 69.242188 61.320312 C 68.785156 62.296875 68.382812 63.296875 68.035156 64.320312 C 67.6875 65.339844 67.398438 66.378906 67.164062 67.429688 C 66.929688 68.484375 66.753906 69.546875 66.636719 70.617188 C 66.519531 71.691406 66.460938 72.765625 66.460938 73.847656 L 81.230469 73.847656 C 81.230469 73.304688 81.257812 72.765625 81.320312 72.226562 C 81.378906 71.6875 81.464844 71.15625 81.582031 70.625 C 81.699219 70.097656 81.847656 69.578125 82.023438 69.0625 C 82.195312 68.550781 82.398438 68.050781 82.628906 67.558594 C 82.859375 67.070312 83.117188 66.59375 83.398438 66.132812 C 83.679688 65.667969 83.988281 65.222656 84.320312 64.796875 C 84.648438 64.367188 85.003906 63.957031 85.378906 63.570312 C 85.757812 63.179688 86.152344 62.8125 86.570312 62.464844 C 86.988281 62.121094 87.421875 61.800781 87.875 61.5 C 88.324219 61.203125 88.792969 60.929688 89.273438 60.683594 C 89.757812 60.4375 90.25 60.21875 90.757812 60.027344 C 91.265625 59.832031 91.777344 59.667969 92.304688 59.535156 C 92.828125 59.398438 93.359375 59.292969 93.894531 59.214844 C 94.429688 59.136719 94.96875 59.089844 95.511719 59.074219 C 96.050781 59.054688 96.589844 59.066406 97.132812 59.109375 C 97.671875 59.148438 98.207031 59.21875 98.738281 59.320312 C 99.445312 59.453125 100.140625 59.636719 100.820312 59.867188 C 101.5 60.101562 102.160156 60.382812 102.800781 60.714844 C 103.441406 61.042969 104.050781 61.417969 104.636719 61.835938 C 105.21875 62.257812 105.769531 62.714844 106.289062 63.214844 C 106.804688 63.714844 107.285156 64.25 107.722656 64.820312 C 108.164062 65.390625 108.558594 65.988281 108.910156 66.617188 C 109.261719 67.242188 109.566406 67.894531 109.824219 68.566406 C 110.078125 69.238281 110.285156 69.925781 110.441406 70.625 C 110.597656 71.328125 110.703125 72.039062 110.757812 72.753906 C 110.808594 73.472656 110.808594 74.191406 110.757812 74.90625 C 110.707031 75.625 110.601562 76.335938 110.445312 77.039062 C 110.289062 77.738281 110.085938 78.425781 109.828125 79.097656 C 109.570312 79.769531 109.269531 80.421875 108.917969 81.050781 C 108.566406 81.675781 108.171875 82.277344 107.730469 82.84375 C 107.292969 83.414062 106.816406 83.949219 106.300781 84.453125 C 105.78125 84.953125 105.230469 85.410156 104.648438 85.832031 C 103.441406 86.648438 102.292969 87.539062 101.191406 88.492188 C 100.09375 89.449219 99.058594 90.46875 98.082031 91.546875 C 97.101562 92.628906 96.195312 93.761719 95.351562 94.949219 C 94.511719 96.140625 93.742188 97.375 93.050781 98.652344 C 92.355469 99.933594 91.738281 101.25 91.203125 102.605469 C 90.664062 103.957031 90.210938 105.339844 89.839844 106.746094 C 89.464844 108.15625 89.179688 109.582031 88.976562 111.023438 C 88.773438 112.464844 88.660156 113.914062 88.628906 115.371094 L 88.628906 118.152344 L 103.398438 118.152344 L 103.398438 115.371094 C 103.464844 113.617188 103.738281 111.898438 104.214844 110.210938 C 104.691406 108.523438 105.359375 106.914062 106.21875 105.386719 C 107.078125 103.859375 108.109375 102.453125 109.304688 101.171875 C 110.5 99.890625 111.832031 98.765625 113.292969 97.800781 C 114.464844 96.960938 115.566406 96.035156 116.601562 95.03125 C 117.632812 94.03125 118.589844 92.957031 119.464844 91.8125 C 120.34375 90.667969 121.132812 89.46875 121.832031 88.207031 C 122.535156 86.949219 123.140625 85.648438 123.652344 84.300781 C 124.160156 82.953125 124.570312 81.574219 124.878906 80.167969 C 125.1875 78.757812 125.394531 77.335938 125.496094 75.898438 C 125.59375 74.460938 125.589844 73.023438 125.480469 71.585938 C 125.371094 70.152344 125.15625 68.730469 124.839844 67.324219 C 124.523438 65.917969 124.105469 64.542969 123.585938 63.199219 C 123.066406 61.855469 122.453125 60.554688 121.742188 59.300781 C 121.035156 58.046875 120.238281 56.851562 119.351562 55.710938 C 118.46875 54.574219 117.507812 53.507812 116.464844 52.507812 C 115.425781 51.511719 114.320312 50.597656 113.144531 49.761719 C 111.96875 48.925781 110.742188 48.179688 109.457031 47.527344 C 108.171875 46.871094 106.847656 46.3125 105.484375 45.851562 C 104.117188 45.390625 102.726562 45.03125 101.308594 44.773438 Z M 101.292969 44.773438 " fill-opacity="1" fill-rule="nonzero"/><path fill="#000000" d="M 103.382812 140.308594 C 103.382812 140.792969 103.335938 141.273438 103.242188 141.75 C 103.148438 142.222656 103.007812 142.6875 102.824219 143.132812 C 102.636719 143.582031 102.410156 144.007812 102.140625 144.410156 C 101.871094 144.8125 101.566406 145.1875 101.222656 145.53125 C 100.878906 145.871094 100.503906 146.179688 100.101562 146.449219 C 99.699219 146.71875 99.273438 146.945312 98.824219 147.128906 C 98.378906 147.316406 97.917969 147.457031 97.441406 147.550781 C 96.964844 147.644531 96.484375 147.691406 96 147.691406 C 95.515625 147.691406 95.035156 147.644531 94.558594 147.550781 C 94.082031 147.457031 93.621094 147.316406 93.175781 147.128906 C 92.726562 146.945312 92.300781 146.71875 91.898438 146.449219 C 91.496094 146.179688 91.121094 145.871094 90.777344 145.53125 C 90.433594 145.1875 90.128906 144.8125 89.859375 144.410156 C 89.589844 144.007812 89.363281 143.582031 89.175781 143.132812 C 88.992188 142.6875 88.851562 142.222656 88.757812 141.75 C 88.664062 141.273438 88.617188 140.792969 88.617188 140.308594 C 88.617188 139.824219 88.664062 139.34375 88.757812 138.867188 C 88.851562 138.390625 88.992188 137.929688 89.175781 137.480469 C 89.363281 137.035156 89.589844 136.609375 89.859375 136.203125 C 90.128906 135.800781 90.433594 135.429688 90.777344 135.085938 C 91.121094 134.742188 91.496094 134.4375 91.898438 134.167969 C 92.300781 133.898438 92.726562 133.671875 93.175781 133.484375 C 93.621094 133.300781 94.082031 133.160156 94.558594 133.066406 C 95.035156 132.96875 95.515625 132.921875 96 132.921875 C 96.484375 132.921875 96.964844 132.96875 97.441406 133.066406 C 97.917969 133.160156 98.378906 133.300781 98.824219 133.484375 C 99.273438 133.671875 99.699219 133.898438 100.101562 134.167969 C 100.503906 134.4375 100.878906 134.742188 101.222656 135.085938 C 101.566406 135.429688 101.871094 135.800781 102.140625 136.203125 C 102.410156 136.609375 102.636719 137.035156 102.824219 137.480469 C 103.007812 137.929688 103.148438 138.390625 103.242188 138.867188 C 103.335938 139.34375 103.382812 139.824219 103.382812 140.308594 Z M 103.382812 140.308594 " fill-opacity="1" fill-rule="nonzero"/></svg>