<svg id="Camada_1" data-name="Camada 1" xmlns="http://www.w3.org/2000/svg" viewBox="0 0 24 24"><defs><style>.cls-1{fill:#e98300;}.cls-2{fill:#fff;}</style></defs><path class="cls-1" d="M17.23,5.81c-.1.19-.23.53-.33.73S12.61,16,12.51,16.21s-.43.95-.43.95l-2-4.49a2,2,0,0,0-1.82-1.18H6.15s4.22,9.27,4.3,9.49l.05.07a8.29,8.29,0,0,0,1.5.14A9.4,9.4,0,0,0,13.69,21l8.5-18.75a4.46,4.46,0,0,0-4.52,2.59C17.46,5.34,17.29,5.71,17.23,5.81Z" transform="translate(0 0)"/><path class="cls-2" d="M22.35,5.93,20.8,9.35A9.19,9.19,0,1,1,12,2.81a9.13,9.13,0,0,1,4.32,1.08,6.07,6.07,0,0,1,1.89-2.16,12,12,0,1,0,4.14,4.2Z" transform="translate(0 0)"/></svg>