<svg id="Camada_1" data-name="Camada 1" xmlns="http://www.w3.org/2000/svg" viewBox="0 0 269.64 88.76"><defs><style>.cls-1{fill:#ea4335;}.cls-2{fill:#fbbc05;}.cls-3{fill:#257af4;}.cls-4{fill:#34a853;}</style></defs><path class="cls-1" d="M115.39,46.71A22.25,22.25,0,1,1,93.14,24.46,22.25,22.25,0,0,1,115.39,46.71Zm-9.74,0c0-8-5.79-13.44-12.51-13.44s-12.5,5.46-12.5,13.44,5.78,13.44,12.5,13.44,12.5-5.55,12.5-13.44Z" transform="translate(0 0)"/><path class="cls-2" d="M163.39,46.71a22.25,22.25,0,1,1-22.25-22.25A22.25,22.25,0,0,1,163.39,46.71Zm-9.74,0c0-8-5.79-13.44-12.51-13.44s-12.5,5.46-12.5,13.44,5.79,13.44,12.51,13.44,12.49-5.55,12.49-13.44Z" transform="translate(0 0)"/><path class="cls-3" d="M209.39,25.87V65.69c0,16.38-9.66,23.07-21.08,23.07a21.11,21.11,0,0,1-19.67-13.07l8.48-3.53c1.51,3.61,5.21,7.87,11.17,7.87,7.31,0,11.84-4.51,11.84-13V63.84h-.34a15.12,15.12,0,0,1-11.68,5c-11.09,0-21.25-9.66-21.25-22.09S177,24.53,188.12,24.53a15.37,15.37,0,0,1,11.68,5h.34V25.88h9.25Zm-8.56,20.92c0-7.81-5.21-13.52-11.84-13.52S176.64,39,176.64,46.79,182.27,60.15,189,60.15,200.83,54.53,200.83,46.79Z" transform="translate(0 0)"/><path class="cls-4" d="M224.64,2.53v65h-9.5v-65Z" transform="translate(0 0)"/><path class="cls-1" d="M261.64,54l7.56,5a22.09,22.09,0,0,1-18.48,9.83c-12.6,0-22-9.74-22-22.18,0-13.13,9.5-22.13,20.92-22.13s17.14,9.16,19,14.11l1,2.52L240,53.43c2.27,4.45,5.8,6.72,10.75,6.72s8.4-2.44,10.92-6.14Zm-23.27-8,19.82-8.23c-1.09-2.77-4.37-4.7-8.23-4.7a12.17,12.17,0,0,0-11.58,12.73c0,.07,0,.15,0,.22Z" transform="translate(0 0)"/><path class="cls-3" d="M34.93,40.94V31.53H66.64a31,31,0,0,1,.47,5.68c0,7.06-1.93,15.79-8.15,22-6,6.3-13.78,9.66-24,9.66-19,0-35-15.45-35-34.43S16,0,34.94,0a32.8,32.8,0,0,1,23.6,9.53l-6.64,6.6a24,24,0,0,0-17-6.72,24.7,24.7,0,0,0-24.7,24.7v.3a24.7,24.7,0,0,0,24.4,25h.3c9,0,14.11-3.61,17.39-6.89,2.66-2.66,4.41-6.46,5.1-11.65Z" transform="translate(0 0)"/></svg>